<svg xmlns="http://www.w3.org/2000/svg" direction="ltr" width="513.9811619304841" height="266.99733194593" viewBox="487.6629011102211 312.6386037539984 513.9811619304841 266.99733194593" stroke-linecap="round" stroke-linejoin="round" data-color-mode="dark" class="tl-container tl-theme__force-sRGB tl-theme__dark" style="background-color: transparent;"><defs/><g transform="matrix(1, 0, 0, 1, 613.6535, 344.6386)" opacity="1"><g transform="scale(1)"><path d="M0,2.6385 T-2.28,2.5187 -6.4843,2.3737 -10.8235,2.265 -15.464,2.1248 -19.8124,2.0472 -24.4579,1.9849 -29.4931,1.9134 -34.7403,1.8612 -39.8747,1.8231 -44.2638,1.8423 -49.5335,2.1783 -55.4649,3.0107 -60.1523,4.7184 -63.7957,7.229 -67.2635,10.1274 -70.141,12.7568 -72.8608,16.1363 -75.5119,19.9522 -77.7697,23.4209 -80.2265,27.51 -82.4757,31.9257 -84.3823,36.7339 -85.8708,41.9916 -87.1503,46.774 -88.3102,50.983 -89.4083,55.2715 -90.4608,60.2983 -91.265,65.6817 -91.7088,70.4064 -91.9557,75.0129 -92.094,79.7931 -92.1719,84.6748 -92.216,89.6109 -92.2412,94.5763 -92.2176,99.1012 -91.9364,103.0545 -91.2971,106.6677 -90.446,109.9541 -89.5094,113.3515 -88.5235,116.5096 -87.0062,119.7558 -84.7436,123.6428 -82.2845,126.9844 -79.8535,129.6826 -77.1634,132.1509 -74.0468,134.6094 -71.0523,136.6643 -68.413,138.2548 -65.0513,140.1751 -61.5626,141.7904 -57.9059,143.2911 -53.8831,144.3223 -50.2841,144.4212 -46.2776,144.4262 -41.8135,144.1119 -37.491,143.6899 -33.6327,143.2395 -29.8933,142.3074 -26.0169,141.0166 -22.6881,139.7079 -19.9687,138.1629 -16.7576,135.4045 -13.4597,132.2302 -10.8818,129.824 -8.3603,127.7532 -5.8705,124.9933 -4.6949,121.4598 -4.6246,117.3871 -4.5863,113.4354 -4.5582,109.9805 -4.5412,106.6181 -4.5555,103.1819 -4.5913,99.7717 -5.8677,97.5508 -9.2893,96.0653 -13.1086,94.6685 -16.3191,93.9188 -19.676,93.285 -23.1666,92.7045 -26.7701,92.5305 -30.3084,92.4714 -33.8438,92.1393 -38.0095,91.6293 -40.2641,91.4449 A3.4551,3.4551 0 0 1 -39.7359,84.5551 T-38.6794,84.6218 -35.4295,85.119 -31.6869,85.5554 -28.3535,85.5799 -24.5089,85.6585 -20.1895,86.0369 -16.3764,86.6435 -13.2939,87.2322 -10.1299,88.0529 -6.5344,89.2697 -2.6418,90.9912 0.3394,93.2161 1.9991,96.3154 2.5913,99.7718 2.5554,103.1822 2.5406,106.6191 2.5561,109.9845 2.5792,113.4479 2.5959,116.8308 2.5392,120.5315 2.2424,123.9094 1.2582,127.0061 -0.7492,129.9046 -3.5528,132.4482 -6.4544,135.0025 -9.2993,137.6442 -11.8735,140.0395 -14.533,142.3514 -17.5748,144.7533 -20.7294,146.3115 -24.1525,147.4912 -28.3835,148.9497 -33.0069,150.1699 -37.4199,150.7614 -41.8943,151.2509 -45.7228,151.5742 -49.3102,151.5604 -52.9173,151.4521 -55.9701,151.1189 -59.253,150.1031 -62.6011,148.6992 -65.5085,147.271 -68.7443,145.5368 -72.3166,143.27 -76.0878,140.6514 -79.4916,138.0333 -82.7505,134.9143 -85.628,131.5722 -87.7273,128.1544 -90.0718,124.0951 -91.8057,120.5825 -92.6999,117.7276 -93.5777,114.3787 -94.3906,110.844 -95.079,107.2552 -95.593,103.2597 -95.7557,99.094 -95.7097,94.5619 -95.6937,89.5843 -95.6621,84.6252 -95.6009,79.6997 -95.4833,74.8341 -95.26,70.0918 -94.8394,65.1751 -94.0547,59.5414 -93.0245,54.3751 -91.9707,49.9851 -90.8513,45.785 -89.6175,40.9772 -88.1624,35.3117 -86.3344,30.0992 -84.2333,25.3153 -82.046,20.8755 -79.9581,17.0487 -78.0269,13.9483 -76.1023,11.3453 -72.911,8.0666 -68.8229,4.5575 -64.5471,1.7279 -60.6156,-0.2871 -56.1733,-1.2597 -49.7551,-1.7223 -44.2638,-1.8423 -39.8747,-1.8231 -34.7403,-1.8612 -29.4931,-1.9134 -24.4579,-1.9849 -19.8124,-2.0472 -15.464,-2.1248 -10.8235,-2.265 -6.4843,-2.3737 -2.28,-2.5187 0,-2.6385 A2.6385,2.6385 0 0 1 0,2.6385 Z" stroke-linecap="round" fill="#4f72fc"/></g></g><g transform="matrix(1, 0, 0, 1, 681.6535, 431.6386)" opacity="1"><g transform="scale(1)"><path d="M0,3.291 T-1.14,3.2824 -3.8176,3.2994 -7.2727,3.3631 -10.9646,3.3997 -14.0511,3.8877 -17.2088,5.1943 -21.0883,6.9144 -24.3004,8.6577 -27.1182,10.2677 -29.9273,12.1123 -31.7061,14.4852 -33.1417,17.7552 -34.9167,21.9452 -36.0707,25.6272 -36.7433,28.6974 -37.3,32.0882 -37.3828,35.3454 -37.0448,38.2362 -36.2486,41.5643 -34.8662,45.0668 -32.7823,47.4973 -29.9495,49.2139 -26.239,51.0895 -22.7903,52.576 -19.3974,53.1532 -15.9818,53.2633 -12.5507,53.2975 -9.0884,53.3217 -6.0931,52.665 -3.0254,51.0519 -0.2911,48.9078 1.5333,46.3917 3.0041,43.1541 4.3408,39.8788 5.3721,36.868 6.1034,33.459 6.7214,30.1569 7.2451,26.6519 7.3402,22.9838 7.3327,19.7379 7.3275,16.7691 6.2618,13.959 3.9581,11.6711 1.2491,9.771 -2.015,7.8518 -4.7953,6.7831 -5.7873,6.6474 A3.7314,3.7314 0 0 1 -4.2127,-0.6474 T-2.1534,-0.0395 1.295,1.3279 4.1963,3.108 7.3724,5.307 10.3995,7.6606 12.7381,10.4172 14.1905,13.5281 14.6716,16.6338 14.6618,19.7535 14.626,23.0574 14.504,26.8143 13.9325,30.5311 13.2891,34.0007 12.6303,37.2998 11.6358,40.6717 10.5994,43.962 9.1744,47.3194 7.5002,50.4439 5.4925,53.2188 2.9962,55.8129 -0.2756,57.8926 -3.6214,59.4863 -6.9475,60.3631 -10.3946,60.6801 -13.8939,60.6903 -17.3971,60.6814 -21.0698,60.4425 -24.8477,59.6609 -28.3852,58.1316 -32.0212,56.5007 -35.1487,54.8166 -37.8906,52.4293 -40.5568,49.0925 -42.4397,45.6355 -43.402,42.2189 -44.2387,38.5336 -44.5798,35.2352 -44.4216,31.9005 -43.9511,28.5429 -43.306,25.5172 -42.4627,22.1103 -41.2112,18.487 -39.7515,15.28 -38.3064,12.1266 -36.2797,9.1917 -33.4926,6.5226 -30.7076,4.6542 -27.6501,2.9964 -23.7425,0.835 -19.5152,-1.1227 -15.1499,-2.7277 -11.0102,-3.3997 -7.2727,-3.3631 -3.8176,-3.2994 -1.14,-3.2824 0,-3.291 A3.291,3.291 0 0 1 0,3.291 Z" stroke-linecap="round" fill="#e03131"/></g></g><g transform="matrix(1, 0, 0, 1, 763.6535, 441.6386)" opacity="1"><g transform="scale(1)"><path d="M-2.0314,2.7085 T-2.9311,2.0148 -5.1723,0.3418 -8.1794,-1.009 -11.3346,-1.4049 -14.9628,-1.4336 -18.7019,-1.4431 -22.0267,-1.0553 -25.686,-0.0832 -29.5958,1.2146 -32.8108,2.5983 -34.4638,4.6188 -35.8611,8.0924 -37.7678,12.2979 -39.7494,16.3601 -41.4298,20.7012 -42.2493,24.9219 -42.3147,28.2102 -40.5624,30.9467 -37.503,32.2704 -34.3926,32.3041 -30.7724,32.3226 -27.3728,32.3364 -24.1169,32.3391 -20.318,31.6006 -16.5022,29.8769 -13.2316,27.9728 -10.2938,26.0955 -7.4027,23.9886 -4.8786,21.7944 -2.7628,19.0417 -1.3073,14.9935 -0.7571,10.6857 -0.6594,6.9978 -0.6584,3.7385 -0.6766,1.1016 -0.6852,-0.0022 A3.6852,3.6852 0 0 1 6.6852,0.0022 T6.6652,2.1317 6.6207,5.9315 6.5608,9.1025 6.3826,11.9927 5.7691,15.6148 4.6419,19.5689 3.0864,23.0067 1.0337,25.8255 -1.5383,28.1968 -4.7207,30.7678 -7.9795,33.0745 -10.9942,35.0615 -14.2929,36.9718 -17.4097,38.4048 -20.5293,39.2878 -24.1176,39.6605 -27.3755,39.6623 -30.7885,39.6697 -34.5335,39.6481 -38.1315,39.4645 -41.8819,38.4368 -45.364,35.9014 -48.1144,32.2191 -49.3174,28.2206 -49.1365,24.7103 -48.4809,21.3707 -47.4342,17.3822 -45.9908,13.5585 -44.2728,9.7226 -42.6441,5.4964 -40.8626,1.9281 -37.9869,-1.6243 -34.6199,-4.2719 -31.5621,-5.4879 -28.3902,-6.5491 -24.399,-7.7785 -20.4421,-8.5414 -17.1772,-8.5496 -13.5467,-8.5232 -9.6964,-8.3421 -5.5588,-7.329 -1.5767,-5.2607 1.1071,-3.3828 2.0314,-2.7085 A3.3856,3.3856 0 0 1 -2.0314,2.7085 ZM6.6852,0.0001 T6.6938,1.2362 7.0159,4.436 7.5712,8.6864 7.9197,12.5806 8.4059,17.0287 9.0298,21.2747 9.4331,24.3476 9.8347,27.6657 10.236,31.0595 10.6763,34.2459 11.1433,37.3512 11.598,40.6757 12.069,43.8209 12.7963,47.9731 13.5237,53.2128 13.7718,58.5342 13.8416,63.9806 13.8621,68.1178 13.8526,71.0324 13.6089,74.0124 13.2426,77.5743 12.7266,81.651 11.5533,85.5502 9.6768,89.4473 7.575,92.7299 5.078,95.1901 1.9111,97.6104 -2.2584,100.2079 -7.351,102.7975 -11.9753,104.9014 -15.7112,106.6735 -19.8377,108.1917 -24.0152,108.9953 -27.9385,109.2505 -31.5736,109.363 -34.9351,109.0696 -38.5989,107.6213 -41.4683,105.5469 -43.1233,103.9078 -43.6901,103.2136 A3.4837,3.4837 0 0 1 -38.3099,98.7864 T-37.7827,99.6458 -35.7901,101.5514 -32.8898,102.6042 -29.4525,102.6272 -26.0089,102.6127 -23.1535,102.4402 -20.1895,101.6326 -16.4122,100.0152 -12.1675,98.2926 -8.8533,96.6143 -5.781,94.6971 -2.3399,92.4459 0.4749,90.3776 2.6088,88.4563 4.3552,86.0229 5.921,82.7309 7.0605,78.8738 7.7714,74.7315 8.1382,71.0317 8.1211,68.1322 8.1107,64.0186 8.0736,59.8185 7.9965,55.9146 7.7633,51.3339 7.0802,46.2239 6.21,41.4785 5.6654,38.2264 5.1338,35.1099 4.5767,31.8888 3.9827,28.5333 3.393,25.3123 2.6199,20.8689 1.4793,15.034 0.5704,10.6488 0.0683,7.6237 -0.3913,4.3391 -0.6938,1.2362 -0.6852,-0.0001 A3.6852,3.6852 0 0 1 6.6852,0.0001 Z" stroke-linecap="round" fill="#ffc034"/></g></g><g transform="matrix(1, 0, 0, 1, 885.6535, 352.6386)" opacity="1"><g transform="scale(1)"><path d="M2.6697,0 T2.6647,1.596 2.5405,5.4282 2.3285,10.249 2.1666,15.3794 2.0468,20.2224 1.9588,25.365 1.898,30.4426 1.8537,35.0288 1.8291,39.5756 1.839,43.8731 1.8347,48.263 1.8039,52.9311 1.8294,57.2945 1.9496,60.8082 2.0977,63.8597 2.218,66.8877 2.3158,69.9029 2.45,74.0607 2.5657,78.1466 2.6731,81.716 2.8202,85.8923 2.925,90.1724 3.0037,94.4834 3.083,98.3474 3.1603,101.5754 3.6635,104.6473 4.2194,107.6802 4.7767,110.6713 5.3619,113.9898 5.5173,117.2524 5.8973,120.2259 6.385,123.69 6.5307,125.7198 A3.5418,3.5418 0 0 1 -0.5307,126.2802 T-0.6741,124.2738 -1.1909,120.5424 -1.5488,117.3442 -1.5885,114.1312 -2.0238,110.8854 -2.4556,107.8194 -2.8521,104.6903 -3.1603,101.6307 -3.083,98.3474 -3.0037,94.4834 -2.925,90.1724 -2.8202,85.8923 -2.6731,81.716 -2.5657,78.1466 -2.45,74.0607 -2.3158,69.9029 -2.218,66.8877 -2.0977,63.8597 -1.9496,60.8082 -1.8294,57.2945 -1.8039,52.9311 -1.8347,48.263 -1.839,43.8731 -1.8291,39.5756 -1.8537,35.0288 -1.898,30.4426 -1.9588,25.365 -2.0468,20.2224 -2.1666,15.3794 -2.3285,10.249 -2.5405,5.4282 -2.6647,1.596 -2.6697,0 A2.6697,2.6697 0 0 1 2.6697,0 Z" stroke-linecap="round" fill="#40c057"/></g></g><g transform="matrix(1, 0, 0, 1, 837.6535, 438.6386)" opacity="1"><g transform="scale(1)"><path d="M0,3.3816 T-1.368,3.3439 -4.4651,3.3209 -7.9512,3.3767 -11.2497,3.4526 -14.2317,3.5013 -17.1765,4.2674 -20.1057,5.927 -23.0003,7.8145 -25.3411,9.9331 -27.1848,12.4944 -29.1609,15.5115 -30.6905,18.7053 -31.6826,21.8365 -32.2012,25.1125 -31.9892,28.3691 -29.7077,31.355 -25.5237,33.4251 -21.725,34.099 -18.1903,33.0468 -15.1038,30.8002 -12.5907,28.5421 -9.3686,25.8462 -5.9425,22.8827 -2.8881,20.0119 -0.1519,17.185 2.42,14.0744 4.5532,11.1239 5.9391,8.2277 6.5484,6.5363 A3.4826,3.4826 0 0 1 13.4516,7.4637 T13.2475,8.7 12.1216,11.496 10.2271,14.5512 7.9175,17.8294 4.9935,21.4918 1.892,24.8978 -1.2077,27.9756 -4.3026,30.8386 -6.7682,33.198 -8.8251,35.1716 -11.3471,37.4951 -14.1946,39.9403 -17.956,41.3745 -22.0431,41.6565 -25.3317,41.0373 -28.39,39.9882 -31.3095,38.683 -34.3265,36.7134 -37.206,33.5891 -39.096,29.7219 -39.6947,26.2092 -39.4483,22.7226 -38.8009,19.434 -37.5956,16.1805 -36.0401,13.0338 -34.4993,10.5035 -32.8671,7.9222 -31.1439,5.4348 -29.0945,3.2238 -26.3662,1.1883 -23.1666,-0.8078 -20.0797,-2.2867 -17.3002,-3.14 -14.3639,-3.5013 -11.2497,-3.4526 -7.9512,-3.3767 -4.4651,-3.3209 -1.368,-3.3439 0,-3.3816 A3.3816,3.3816 0 0 1 0,3.3816 ZM13.4826,7.0102 T13.5031,8.2313 13.5417,11.3293 13.4925,15.702 13.3594,19.7393 13.5714,22.9375 13.968,26.9992 14.4059,30.9361 14.9084,34.4272 15.3293,38.4675 15.9451,42.3206 16.5992,45.6229 17.0361,48.7101 17.7147,52.8475 18.4476,57.7124 18.7748,61.8564 18.9404,65.8034 19.047,69.565 19.1414,73.3005 18.8132,76.884 17.5422,80.5115 15.6429,83.862 13.3983,86.3986 10.8226,88.6831 8.0311,90.6652 4.9225,92.409 1.7604,93.7837 -1.6785,94.8197 -5.2189,95.8835 -8.7517,96.9113 -12.6294,97.4119 -16.1812,97.5682 -19.6133,97.1641 -22.8258,95.7109 -25.2779,93.7215 -27.7082,91.3839 -30.4894,88.5463 -33.5409,85.1384 -36.3574,81.5459 -38.1931,78.8643 -38.8306,77.8426 A3.3774,3.3774 0 0 1 -33.1694,74.1574 T-32.0514,75.8383 -29.7623,78.9984 -27.098,81.9182 -24.1806,84.7201 -21.6139,87.1543 -19.5711,89.316 -17.2339,90.4014 -14.2332,90.3726 -11.0605,90.1645 -8.1099,89.5329 -5.0815,88.6331 -1.746,87.6241 1.9495,85.995 5.6185,83.8806 8.7423,81.2552 11.0611,78.4993 12.3404,75.4841 12.8732,71.7111 12.9894,67.9738 13.0594,64.066 13.0821,59.9427 12.9339,55.7501 12.5054,52.1316 12.1413,49.2869 11.8887,46.504 11.2752,43.2068 10.3993,39.1196 9.7545,35.2697 9.1362,31.8009 8.352,27.9731 7.3403,23.6294 6.6401,19.7586 6.5059,15.7047 6.4499,11.3483 6.4897,8.2378 6.5174,6.9898 A3.4826,3.4826 0 0 1 13.4826,7.0102 Z" stroke-linecap="round" fill="#4f72fc"/></g></g><g transform="matrix(1, 0, 0, 1, 925.6535, 453.6386)" opacity="1"><g transform="scale(1)"><path d="M0,-3.2919 T1.14,-3.2832 3.8176,-3.3001 7.2727,-3.3637 10.7594,-3.4138 14.4291,-3.407 18.5593,-3.3782 22.2458,-3.3801 25.782,-3.4244 29.2225,-3.4876 32.2934,-3.5435 35.3048,-3.5892 37.477,-5.2423 38.757,-8.1311 39.7517,-10.9102 40.1929,-14.1477 38.9307,-17.3872 35.8114,-20.011 32.4017,-21.6276 29.1153,-22.1954 25.834,-22.2517 22.7148,-22.2546 19.277,-22.2601 15.7472,-21.975 12.9004,-20.8759 10.371,-18.8392 8.5074,-16.2731 6.9338,-13.0516 4.9158,-9.5141 3.4272,-6.1607 2.1702,-2.7795 1.1743,0.3733 0.8866,3.3738 0.7984,6.3611 0.7873,9.3157 0.7739,12.7279 1.0662,16.2663 2.849,18.8679 5.8894,20.0007 9.1042,20.1807 12.5552,20.3133 15.7736,20.7721 19.0163,21.1606 22.3257,21.1974 25.31,21.2015 28.3075,21.2025 31.3516,20.9083 34.5556,20.0425 37.3895,18.6981 39.3902,17.1919 40.2163,16.4589 A3.7691,3.7691 0 0 1 45.7837,21.5411 T43.9674,22.9166 40.023,25.3563 36.1324,27.2102 32.0884,28.3985 28.3068,28.7972 25.3054,28.7971 22.2971,28.7937 19.243,28.7688 15.809,28.5275 12.3111,28.0398 8.9437,27.7512 5.7237,27.6333 2.3689,26.7557 -0.9404,25.03 -3.3849,22.9696 -5.2012,20.0572 -6.3759,16.4527 -6.773,12.7252 -6.782,9.2987 -6.7652,6.2556 -6.6548,2.9885 -6.0394,-0.7294 -4.8952,-4.4706 -3.8178,-7.6433 -2.6691,-10.791 -1.0572,-13.9715 0.7332,-17.1764 2.5135,-20.413 4.5937,-23.351 7.3537,-25.8503 10.6067,-27.903 13.6919,-29.3094 16.8002,-29.7193 20.3508,-29.7373 23.7542,-29.7371 27.0579,-29.7148 30.8649,-29.5704 34.5756,-28.8865 37.4904,-27.5897 40.2264,-25.8092 43.2585,-23.5092 45.8731,-20.8027 47.3187,-17.0335 47.5823,-12.9579 46.9223,-9.6453 45.7288,-6.6768 43.9752,-2.9047 41.8341,0.8189 38.8024,2.8937 35.3048,3.5892 32.2934,3.5435 29.2225,3.4876 25.782,3.4244 22.2458,3.3801 18.5593,3.3782 14.4291,3.407 10.7594,3.4138 7.2727,3.3637 3.8176,3.3001 1.14,3.2832 0,3.2919 A3.2919,3.2919 0 0 1 0,-3.2919 Z" stroke-linecap="round" fill="#e03131"/></g></g></svg>